<svg xmlns="http://www.w3.org/2000/svg" viewBox="0 0 37.04 36.36"><defs><style>.cls-1{fill:#fff;}</style></defs><title>airplane1</title><g id="Layer_2" data-name="Layer 2"><g id="Layer_1-2" data-name="Layer 1"><path class="cls-1" d="M2.57,18.18.11,23.85a1.39,1.39,0,0,0,.41,1.64h0a1.39,1.39,0,0,0,.86.3h.25a1.39,1.39,0,0,0,1-.39l6.46-6.25Z"/><path class="cls-1" d="M2.57,18.18.11,12.52a1.39,1.39,0,0,1,.41-1.64h0a1.39,1.39,0,0,1,.86-.3h.25a1.39,1.39,0,0,1,1,.39l6.46,6.25Z"/><path class="cls-1" d="M13.53,20.34,8.12,34.75a1.19,1.19,0,0,0,1.12,1.62h1a2,2,0,0,0,1.56-.75L24.39,19.9Z"/><path class="cls-1" d="M13.53,16,8.12,1.62A1.19,1.19,0,0,1,9.24,0h1A2,2,0,0,1,11.8.75L24.39,16.46Z"/><path class="cls-1" d="M34.34,16.24l2.08,1a1.08,1.08,0,0,1,0,2l-2.08,1a6.38,6.38,0,0,1-2.69.59H2.5V15.65H31.65A6.38,6.38,0,0,1,34.34,16.24Z"/></g></g></svg>