<svg xmlns="http://www.w3.org/2000/svg" viewBox="0 0 50.51 51.42"><defs><style>.cls-1{opacity:0.5;}.cls-2{fill:#838db1;}</style></defs><title>calendar</title><g id="Layer_2" data-name="Layer 2"><g id="Layer_1-2" data-name="Layer 1"><g class="cls-1"><path class="cls-2" d="M46.47,7.4H4a4,4,0,0,0-4,4V47.38a4,4,0,0,0,4,4H46.47a4,4,0,0,0,4-4V11.44A4,4,0,0,0,46.47,7.4Zm-.72,35.45a2.89,2.89,0,0,1-2.89,2.89H7.65a2.89,2.89,0,0,1-2.89-2.89V20.12a2.89,2.89,0,0,1,2.89-2.89H42.87a2.89,2.89,0,0,1,2.89,2.89Z"/><path class="cls-2" d="M11.77,13.45h0A3.88,3.88,0,0,1,7.89,9.57V3.88A3.88,3.88,0,0,1,11.77,0h0a3.88,3.88,0,0,1,3.88,3.88V9.57A3.88,3.88,0,0,1,11.77,13.45Z"/><path class="cls-2" d="M38.74,13.45h0a3.88,3.88,0,0,1-3.88-3.88V3.88A3.88,3.88,0,0,1,38.74,0h0a3.88,3.88,0,0,1,3.88,3.88V9.57A3.88,3.88,0,0,1,38.74,13.45Z"/><rect class="cls-2" x="12.18" y="24.08" width="3.79" height="3.79"/><rect class="cls-2" x="23.36" y="24.08" width="3.79" height="3.79"/><rect class="cls-2" x="34.55" y="24.08" width="3.79" height="3.79"/><rect class="cls-2" x="12.18" y="34.46" width="3.79" height="3.79"/><rect class="cls-2" x="23.36" y="34.46" width="3.79" height="3.79"/><rect class="cls-2" x="34.55" y="34.46" width="3.79" height="3.79"/></g></g></g></svg>